<svg width="30" height="31" viewBox="0 0 30 31" fill="none" xmlns="http://www.w3.org/2000/svg">
<g clip-path="url(#clip0_0_118)">
<path d="M28.9999 15.6837L29.5065 16.1902C29.6374 16.0594 29.7095 15.8805 29.707 15.6929C29.7046 15.5054 29.6277 15.3246 29.4934 15.1902L28.9999 15.6837ZM24.9475 11.6312L25.4409 11.1378C25.3408 11.0373 25.2138 10.968 25.0762 10.9387C24.9385 10.9095 24.7963 10.9215 24.6676 10.9734C24.5389 11.0253 24.4295 11.1146 24.3533 11.23C24.2771 11.3455 24.2375 11.4819 24.2395 11.6219L24.9475 11.6312ZM25.0524 19.6312L24.3444 19.6219C24.3461 19.7619 24.3893 19.8994 24.4685 20.0169C24.5478 20.1344 24.6596 20.2266 24.7897 20.2819C24.9198 20.3371 25.0623 20.3529 25.1993 20.3273C25.3362 20.3016 25.4614 20.2357 25.559 20.1378L25.0524 19.6312ZM24.9907 14.9232L0.990703 14.6085L1.00927 16.0245L25.0092 16.3392L24.9907 14.9232ZM29.4934 15.1902L25.4409 11.1378L24.454 12.1247L28.5065 16.1771L29.4934 15.1902ZM24.2395 11.6219L24.3444 19.6219L25.7604 19.6405L25.6555 11.6405L24.2395 11.6219ZM25.559 20.1378L29.5065 16.1902L28.4934 15.1771L24.5458 19.1246L25.559 20.1378Z" fill="white"/>
</g>
<defs>
<clipPath id="clip0_0_118">
<rect width="20.935" height="21.4914" fill="white" transform="translate(29.9999 15.6968) rotate(135)"/>
</clipPath>
</defs>
</svg>
