<svg width="36" height="36" viewBox="0 0 36 36" fill="none" xmlns="http://www.w3.org/2000/svg">
<g clip-path="url(#clip0_0_96)">
<path d="M4.86101 9.14708C5.80101 8.49008 7.21801 8.61608 8.06201 9.31308L7.09401 7.90608C6.31501 6.79508 6.59401 5.59308 7.70601 4.81308C8.81801 4.03608 11.969 6.12508 11.969 6.12508C11.183 5.00308 11.33 3.58108 12.452 2.79408C12.9914 2.41716 13.6584 2.2698 14.3065 2.38436C14.9545 2.49893 15.5305 2.86605 15.908 3.40508L26.328 18.1251L25 31.0001L13.917 26.9581L4.25001 12.6251C4.06151 12.3567 3.92777 12.0537 3.85645 11.7336C3.78513 11.4135 3.77764 11.0824 3.83438 10.7594C3.89113 10.4364 4.01102 10.1277 4.18718 9.85103C4.36334 9.57437 4.59231 9.33516 4.86101 9.14708Z" fill="#EF9645"/>
<path d="M2.69503 17.3361C2.69503 17.3361 1.56303 15.6861 3.21403 14.5551C4.86303 13.4241 5.99403 15.0731 5.99403 15.0731L11.245 22.7311C11.426 22.4291 11.624 22.1311 11.845 21.8371L4.55703 11.2101C4.55703 11.2101 3.42603 9.56108 5.07603 8.43008C6.72503 7.29908 7.85603 8.94808 7.85603 8.94808L14.711 18.9451C14.966 18.7371 15.227 18.5281 15.496 18.3231L7.54903 6.73208C7.54903 6.73208 6.41803 5.08308 8.06803 3.95208C9.71703 2.82108 10.848 4.47008 10.848 4.47008L18.795 16.0591C19.087 15.8801 19.376 15.7251 19.666 15.5611L12.238 4.72908C12.238 4.72908 11.107 3.08008 12.756 1.94908C14.405 0.81808 15.536 2.46708 15.536 2.46708L23.39 13.9211L24.584 15.6631C19.636 19.0571 19.165 25.4421 21.992 29.5651C22.557 30.3901 23.382 29.8251 23.382 29.8251C19.989 24.8761 21.025 19.3151 25.974 15.9221L24.515 8.62008C24.515 8.62008 23.97 6.69608 25.893 6.15008C27.817 5.60508 28.363 7.52908 28.363 7.52908L30.048 12.5331C30.716 14.5171 31.427 16.4941 32.368 18.3641C35.025 23.6441 33.438 30.2061 28.428 33.6431C22.963 37.3901 15.492 35.9971 11.744 30.5331L2.69503 17.3361Z" fill="#FFDC5D"/>
<path d="M12 32.042C8.00001 32.042 3.95801 28 3.95801 24C3.95801 23.447 3.55301 23 3.00001 23C2.44701 23 1.95801 23.447 1.95801 24C1.95801 30 6.00001 34.042 12 34.042C12.553 34.042 13 33.553 13 33C13 32.447 12.553 32.042 12 32.042Z" fill="#5DADEC"/>
<path d="M7 34C4 34 2 32 2 29C2 28.7348 1.89464 28.4804 1.70711 28.2929C1.51957 28.1054 1.26522 28 1 28C0.734784 28 0.48043 28.1054 0.292893 28.2929C0.105357 28.4804 0 28.7348 0 29C0 33 3 36 7 36C7.26522 36 7.51957 35.8946 7.70711 35.7071C7.89464 35.5196 8 35.2652 8 35C8 34.7348 7.89464 34.4804 7.70711 34.2929C7.51957 34.1054 7.26522 34 7 34ZM24 2C23.7348 2 23.4804 2.10536 23.2929 2.29289C23.1054 2.48043 23 2.73478 23 3C23 3.26522 23.1054 3.51957 23.2929 3.70711C23.4804 3.89464 23.7348 4 24 4C28 4 32 7.589 32 12C32 12.2652 32.1054 12.5196 32.2929 12.7071C32.4804 12.8946 32.7348 13 33 13C33.2652 13 33.5196 12.8946 33.7071 12.7071C33.8946 12.5196 34 12.2652 34 12C34 6.486 30 2 24 2Z" fill="#5DADEC"/>
<path d="M29 0.0419922C28.448 0.0419922 28 0.447992 28 0.999992C28 1.55199 28.448 2.04199 29 2.04199C32 2.04199 33.958 4.26699 33.958 6.99999C33.958 7.55199 34.447 7.99999 35 7.99999C35.553 7.99999 35.958 7.55199 35.958 6.99999C35.958 3.16299 33 0.0419922 29 0.0419922Z" fill="#5DADEC"/>
</g>
<defs>
<clipPath id="clip0_0_96">
<rect width="36" height="36" fill="white"/>
</clipPath>
</defs>
</svg>
